# 3ds Max Wavefront OBJ Exporter v0.97b - (c)2007 guruware
# File Created: 19.04.2018 13:56:52

mtllib Doughnut.mtl

#
# object Torus001
#

v  -0.0000 0.0000 -9.9632
v  -0.0000 2.9009 -8.7616
v  6.1954 2.9009 -6.1954
v  7.0451 0.0000 -7.0451
v  -0.0000 4.1025 -5.8607
v  4.1442 4.1025 -4.1442
v  -0.0000 2.9009 -2.9598
v  2.0929 2.9009 -2.0929
v  -0.0000 -0.0000 -1.7582
v  1.2432 -0.0000 -1.2432
v  -0.0000 -2.9009 -2.9598
v  2.0929 -2.9009 -2.0929
v  -0.0000 -4.1025 -5.8607
v  4.1442 -4.1025 -4.1442
v  -0.0000 -2.9009 -8.7616
v  6.1954 -2.9009 -6.1954
v  8.7616 2.9009 -0.0000
v  9.9632 0.0000 -0.0000
v  5.8607 4.1025 -0.0000
v  2.9598 2.9009 -0.0000
v  1.7582 -0.0000 -0.0000
v  2.9598 -2.9009 -0.0000
v  5.8607 -4.1025 -0.0000
v  8.7616 -2.9009 -0.0000
v  6.1954 2.9009 6.1954
v  7.0451 0.0000 7.0451
v  4.1442 4.1025 4.1442
v  2.0929 2.9009 2.0929
v  1.2432 -0.0000 1.2432
v  2.0929 -2.9009 2.0929
v  4.1442 -4.1025 4.1442
v  6.1954 -2.9009 6.1954
v  -0.0000 2.9009 8.7616
v  -0.0000 0.0000 9.9632
v  -0.0000 4.1025 5.8607
v  -0.0000 2.9009 2.9598
v  -0.0000 -0.0000 1.7582
v  -0.0000 -2.9009 2.9598
v  -0.0000 -4.1025 5.8607
v  -0.0000 -2.9009 8.7616
v  -6.1954 2.9009 6.1954
v  -7.0451 0.0000 7.0451
v  -4.1442 4.1025 4.1442
v  -2.0929 2.9009 2.0929
v  -1.2432 -0.0000 1.2432
v  -2.0929 -2.9009 2.0929
v  -4.1442 -4.1025 4.1442
v  -6.1954 -2.9009 6.1954
v  -8.7616 2.9009 -0.0000
v  -9.9632 0.0000 -0.0000
v  -5.8607 4.1025 -0.0000
v  -2.9598 2.9009 -0.0000
v  -1.7582 -0.0000 -0.0000
v  -2.9598 -2.9009 -0.0000
v  -5.8607 -4.1025 -0.0000
v  -8.7616 -2.9009 -0.0000
v  -6.1954 2.9009 -6.1954
v  -7.0451 0.0000 -7.0451
v  -4.1442 4.1025 -4.1442
v  -2.0929 2.9009 -2.0929
v  -1.2432 -0.0000 -1.2432
v  -2.0929 -2.9009 -2.0929
v  -4.1442 -4.1025 -4.1442
v  -6.1954 -2.9009 -6.1954
# 64 vertices

vn -0.0000 0.0000 -1.0000
vn -0.0000 0.6630 -0.7486
vn 0.5294 0.6630 -0.5294
vn 0.7071 0.0000 -0.7071
vn -0.0000 0.9955 -0.0949
vn 0.0671 0.9955 -0.0671
vn 0.0000 0.7574 0.6530
vn -0.4617 0.7574 0.4617
vn -0.0000 -0.0000 1.0000
vn -0.7071 -0.0000 0.7071
vn -0.0000 -0.7574 0.6530
vn -0.4617 -0.7574 0.4617
vn 0.0000 -0.9955 -0.0949
vn 0.0671 -0.9955 -0.0671
vn 0.0000 -0.6630 -0.7486
vn 0.5294 -0.6630 -0.5294
vn 0.7486 0.6630 -0.0000
vn 1.0000 0.0000 -0.0000
vn 0.0949 0.9955 -0.0000
vn -0.6530 0.7574 -0.0000
vn -1.0000 -0.0000 0.0000
vn -0.6530 -0.7574 -0.0000
vn 0.0949 -0.9955 -0.0000
vn 0.7486 -0.6630 0.0000
vn 0.5294 0.6630 0.5294
vn 0.7071 0.0000 0.7071
vn 0.0671 0.9955 0.0671
vn -0.4617 0.7574 -0.4617
vn -0.7071 -0.0000 -0.7071
vn -0.4617 -0.7574 -0.4617
vn 0.0671 -0.9955 0.0671
vn 0.5294 -0.6630 0.5294
vn -0.0000 0.6630 0.7486
vn 0.0000 0.0000 1.0000
vn -0.0000 0.9955 0.0949
vn 0.0000 0.7574 -0.6530
vn 0.0000 -0.0000 -1.0000
vn 0.0000 -0.7574 -0.6530
vn -0.0000 -0.9955 0.0949
vn -0.0000 -0.6630 0.7486
vn -0.5294 0.6630 0.5294
vn -0.7071 0.0000 0.7071
vn -0.0671 0.9955 0.0671
vn 0.4617 0.7574 -0.4617
vn 0.7071 -0.0000 -0.7071
vn 0.4617 -0.7574 -0.4617
vn -0.0671 -0.9955 0.0671
vn -0.5294 -0.6630 0.5294
vn -0.7486 0.6630 -0.0000
vn -1.0000 0.0000 -0.0000
vn -0.0949 0.9955 -0.0000
vn 0.6530 0.7574 0.0000
vn 1.0000 -0.0000 0.0000
vn 0.6530 -0.7574 0.0000
vn -0.0949 -0.9955 -0.0000
vn -0.7486 -0.6630 -0.0000
vn -0.5294 0.6630 -0.5294
vn -0.0671 0.9955 -0.0671
vn 0.4617 0.7574 0.4617
vn 0.7071 -0.0000 0.7071
vn 0.4617 -0.7574 0.4617
vn -0.0671 -0.9955 -0.0671
vn -0.5294 -0.6630 -0.5294
# 63 vertex normals

vt 0.8845 0.1415 0.0000
vt 0.8491 0.1422 0.0000
vt 0.8159 0.0662 0.0000
vt 0.8405 0.0407 0.0000
vt 0.8146 0.1428 0.0000
vt 0.7920 0.0911 0.0000
vt 0.7802 0.1435 0.0000
vt 0.7681 0.1159 0.0000
vt 0.7447 0.1441 0.0000
vt 0.7435 0.1414 0.0000
vt 0.8375 0.3961 0.0000
vt 0.8025 0.3962 0.0000
vt 0.8143 0.3680 0.0000
vt 0.8390 0.3927 0.0000
vt 0.7682 0.3961 0.0000
vt 0.7901 0.3436 0.0000
vt 0.7339 0.3960 0.0000
vt 0.7659 0.3193 0.0000
vt 0.6989 0.3959 0.0000
vt 0.7412 0.2945 0.0000
vt 0.7388 0.0360 0.0000
vt 0.7381 0.0005 0.0000
vt 0.7394 0.0704 0.0000
vt 0.7401 0.1049 0.0000
vt 0.7407 0.1403 0.0000
vt 0.8425 0.3564 0.0000
vt 0.8424 0.3913 0.0000
vt 0.8426 0.3220 0.0000
vt 0.8427 0.2877 0.0000
vt 0.8428 0.2527 0.0000
vt 0.6628 0.0691 0.0000
vt 0.6372 0.0445 0.0000
vt 0.6876 0.0930 0.0000
vt 0.7124 0.1169 0.0000
vt 0.7380 0.1415 0.0000
vt 0.8707 0.3681 0.0000
vt 0.8459 0.3928 0.0000
vt 0.8951 0.3439 0.0000
vt 0.9194 0.3197 0.0000
vt 0.9442 0.2950 0.0000
vt 0.6325 0.1463 0.0000
vt 0.5970 0.1469 0.0000
vt 0.6670 0.1456 0.0000
vt 0.7014 0.1450 0.0000
vt 0.7369 0.1443 0.0000
vt 0.8823 0.3963 0.0000
vt 0.8474 0.3962 0.0000
vt 0.9167 0.3964 0.0000
vt 0.9510 0.3965 0.0000
vt 0.9860 0.3966 0.0000
vt 0.6657 0.2222 0.0000
vt 0.6411 0.2478 0.0000
vt 0.6896 0.1974 0.0000
vt 0.7135 0.1726 0.0000
vt 0.7381 0.1470 0.0000
vt 0.8706 0.4245 0.0000
vt 0.8459 0.3997 0.0000
vt 0.8948 0.4489 0.0000
vt 0.9190 0.4732 0.0000
vt 0.9437 0.4980 0.0000
vt 0.7428 0.2525 0.0000
vt 0.7435 0.2880 0.0000
vt 0.7422 0.2180 0.0000
vt 0.7415 0.1836 0.0000
vt 0.7409 0.1481 0.0000
vt 0.8424 0.4361 0.0000
vt 0.8424 0.4011 0.0000
vt 0.8423 0.4705 0.0000
vt 0.8422 0.5048 0.0000
vt 0.8421 0.5398 0.0000
vt 0.8188 0.2193 0.0000
vt 0.8443 0.2440 0.0000
vt 0.7940 0.1954 0.0000
vt 0.7691 0.1715 0.0000
vt 0.7436 0.1469 0.0000
vt 0.8142 0.4244 0.0000
vt 0.8390 0.3996 0.0000
vt 0.7898 0.4486 0.0000
vt 0.7655 0.4728 0.0000
vt 0.7407 0.4975 0.0000
# 80 texture coords

o Torus001
g Torus001
usemtl wire_148177027
s 1
f 1/1/1 2/2/2 3/3/3 4/4/4 
f 2/2/2 5/5/5 6/6/6 3/3/3 
f 5/5/5 7/7/7 8/8/8 6/6/6 
f 7/7/7 9/9/9 10/10/10 8/8/8 
f 9/11/9 11/12/11 12/13/12 10/14/10 
f 11/12/11 13/15/13 14/16/14 12/13/12 
f 13/15/13 15/17/15 16/18/16 14/16/14 
f 15/17/15 1/19/1 4/20/4 16/18/16 
f 4/4/4 3/3/3 17/21/17 18/22/18 
f 3/3/3 6/6/6 19/23/19 17/21/17 
f 6/6/6 8/8/8 20/24/20 19/23/19 
f 8/8/8 10/10/10 21/25/21 20/24/20 
f 10/14/10 12/13/12 22/26/22 21/27/21 
f 12/13/12 14/16/14 23/28/23 22/26/22 
f 14/16/14 16/18/16 24/29/24 23/28/23 
f 16/18/16 4/20/4 18/30/18 24/29/24 
f 18/22/18 17/21/17 25/31/25 26/32/26 
f 17/21/17 19/23/19 27/33/27 25/31/25 
f 19/23/19 20/24/20 28/34/28 27/33/27 
f 20/24/20 21/25/21 29/35/29 28/34/28 
f 21/27/21 22/26/22 30/36/30 29/37/29 
f 22/26/22 23/28/23 31/38/31 30/36/30 
f 23/28/23 24/29/24 32/39/32 31/38/31 
f 24/29/24 18/30/18 26/40/26 32/39/32 
f 26/32/26 25/31/25 33/41/33 34/42/34 
f 25/31/25 27/33/27 35/43/35 33/41/33 
f 27/33/27 28/34/28 36/44/36 35/43/35 
f 28/34/28 29/35/29 37/45/37 36/44/36 
f 29/37/29 30/36/30 38/46/38 37/47/37 
f 30/36/30 31/38/31 39/48/39 38/46/38 
f 31/38/31 32/39/32 40/49/40 39/48/39 
f 32/39/32 26/40/26 34/50/34 40/49/40 
f 34/42/34 33/41/33 41/51/41 42/52/42 
f 33/41/33 35/43/35 43/53/43 41/51/41 
f 35/43/35 36/44/36 44/54/44 43/53/43 
f 36/44/36 37/45/37 45/55/45 44/54/44 
f 37/47/37 38/46/38 46/56/46 45/57/45 
f 38/46/38 39/48/39 47/58/47 46/56/46 
f 39/48/39 40/49/40 48/59/48 47/58/47 
f 40/49/40 34/50/34 42/60/42 48/59/48 
f 42/52/42 41/51/41 49/61/49 50/62/50 
f 41/51/41 43/53/43 51/63/51 49/61/49 
f 43/53/43 44/54/44 52/64/52 51/63/51 
f 44/54/44 45/55/45 53/65/53 52/64/52 
f 45/57/45 46/56/46 54/66/54 53/67/53 
f 46/56/46 47/58/47 55/68/55 54/66/54 
f 47/58/47 48/59/48 56/69/56 55/68/55 
f 48/59/48 42/60/42 50/70/50 56/69/56 
f 50/62/50 49/61/49 57/71/57 58/72/29 
f 49/61/49 51/63/51 59/73/58 57/71/57 
f 51/63/51 52/64/52 60/74/59 59/73/58 
f 52/64/52 53/65/53 61/75/60 60/74/59 
f 53/67/53 54/66/54 62/76/61 61/77/60 
f 54/66/54 55/68/55 63/78/62 62/76/61 
f 55/68/55 56/69/56 64/79/63 63/78/62 
f 56/69/56 50/70/50 58/80/29 64/79/63 
f 58/72/29 57/71/57 2/2/2 1/1/1 
f 57/71/57 59/73/58 5/5/5 2/2/2 
f 59/73/58 60/74/59 7/7/7 5/5/5 
f 60/74/59 61/75/60 9/9/9 7/7/7 
f 61/77/60 62/76/61 11/12/11 9/11/9 
f 62/76/61 63/78/62 13/15/13 11/12/11 
f 63/78/62 64/79/63 15/17/15 13/15/13 
f 64/79/63 58/80/29 1/19/1 15/17/15 
# 64 polygons

